<svg xmlns="http://www.w3.org/2000/svg" version="1.1" viewBox="1.065000057220459 0 511.2249755859375 297.3379211425781" width="513.00" height="298.00">
<g stroke-width="2.00" fill="none" stroke-linecap="butt">
<path stroke="#436d7b" stroke-opacity="0.984" d="&#10;  M 226.44 12.06&#10;  Q 229.74 12.73 233.09 12.09"/>
<path stroke="#384f62" stroke-opacity="0.992" d="&#10;  M 406.71 193.30&#10;  Q 405.78 183.54 403.57 174.21&#10;  C 401.03 163.49 397.52 153.89 386.38 150.12"/>
<path stroke="#4c8893" stroke-opacity="0.992" d="&#10;  M 160.21 125.46&#10;  Q 159.70 140.61 162.04 158.00&#10;  Q 164.86 178.94 168.28 194.43"/>
<path stroke="#3c586b" stroke-opacity="0.988" d="&#10;  M 285.21 154.10&#10;  Q 285.80 154.27 286.54 154.24"/>
<path stroke="#436a78" stroke-opacity="0.992" d="&#10;  M 320.44 155.64&#10;  C 320.86 164.97 318.96 171.43 315.71 180.78&#10;  C 311.78 192.08 313.98 203.47 317.83 215.88"/>
<path stroke="#374a5e" stroke-opacity="0.988" d="&#10;  M 354.20 154.98&#10;  Q 354.89 155.02 355.46 154.84"/>
</g>
<path fill="#303851" fill-opacity="0.984" d="&#10;  M 363.50 0.00&#10;  Q 376.62 0.58 389.68 2.08&#10;  C 393.58 2.52 398.13 3.38 402.93 4.18&#10;  Q 421.84 7.30 440.27 14.19&#10;  Q 456.01 20.08 470.59 30.03&#10;  C 490.15 43.36 503.45 60.75 509.31 83.30&#10;  Q 510.95 89.63 511.77 98.81&#10;  C 512.62 108.39 512.37 115.92 511.44 126.15&#10;  Q 510.84 132.81 509.85 137.73&#10;  Q 505.31 160.36 494.65 181.80&#10;  C 485.25 200.73 470.91 217.58 455.25 232.00&#10;  Q 450.25 236.61 446.40 239.61&#10;  Q 444.67 225.74 444.86 214.30&#10;  Q 445.17 195.26 444.04 179.69&#10;  Q 469.84 158.82 483.60 130.58&#10;  Q 487.06 123.49 490.21 111.06&#10;  C 491.28 106.88 490.99 102.75 492.11 98.59&#10;  A 0.69 0.61 -41.4 0 0 492.13 98.43&#10;  L 492.13 88.07&#10;  A 0.83 0.52 -65.7 0 0 492.10 87.85&#10;  Q 491.01 84.18 491.00 80.31&#10;  A 6.50 6.28 -53.0 0 0 490.81 78.76&#10;  C 486.90 62.80 477.82 47.85 464.54 37.95&#10;  Q 461.51 35.70 458.62 33.10&#10;  Q 458.55 33.05 458.48 33.00&#10;  L 449.52 27.03&#10;  Q 439.43 20.77 428.25 16.82&#10;  C 406.13 8.14 381.15 3.93 357.75 3.17&#10;  C 352.12 2.99 347.36 2.42 342.08 2.33&#10;  Q 331.67 2.16 321.14 1.82&#10;  Q 331.38 0.20 341.63 0.00&#10;  L 363.50 0.00&#10;  Z"/>
<path fill="#58b4ba" fill-opacity="0.988" d="&#10;  M 321.14 1.82&#10;  Q 331.67 2.16 342.08 2.33&#10;  C 347.36 2.42 352.12 2.99 357.75 3.17&#10;  C 381.15 3.93 406.13 8.14 428.25 16.82&#10;  Q 427.42 17.49 426.20 17.53&#10;  Q 401.10 8.17 372.68 5.40&#10;  Q 358.76 4.04 349.66 3.56&#10;  Q 343.69 3.25 337.36 3.75&#10;  Q 330.78 4.27 324.94 3.79&#10;  A 0.72 0.72 0.0 0 0 324.16 4.40&#10;  L 324.11 4.71&#10;  A 0.58 0.58 0.0 0 0 324.74 5.37&#10;  Q 325.77 5.28 326.72 5.53&#10;  Q 322.25 5.01 317.92 5.90&#10;  L 311.84 5.46&#10;  L 308.33 5.14&#10;  A 0.26 0.26 0.0 0 1 308.21 4.66&#10;  L 311.30 2.67&#10;  L 316.44 2.26&#10;  Q 317.53 2.59 317.81 2.11&#10;  L 321.14 1.82&#10;  Z"/>
<path fill="#303851" fill-opacity="0.984" d="&#10;  M 317.81 2.11&#10;  Q 317.53 2.59 316.44 2.26&#10;  Q 316.81 1.95 317.81 2.11&#10;  Z"/>
<path fill="#303851" fill-opacity="0.984" d="&#10;  M 311.30 2.67&#10;  L 308.21 4.66&#10;  A 0.26 0.26 0.0 0 0 308.33 5.14&#10;  L 311.84 5.46&#10;  Q 308.84 6.58 306.95 5.89&#10;  L 297.19 5.56&#10;  L 311.30 2.67&#10;  Z"/>
<path fill="#334258" fill-opacity="0.988" d="&#10;  M 426.20 17.53&#10;  L 447.30 27.50&#10;  Q 448.82 28.51 449.28 28.90&#10;  Q 449.71 29.27 451.43 30.30&#10;  Q 466.76 39.50 474.97 52.08&#10;  C 480.67 60.81 485.17 69.58 486.69 79.75&#10;  Q 488.16 89.56 487.18 99.54&#10;  Q 486.81 103.32 485.97 105.96&#10;  C 485.25 108.24 484.92 111.42 483.95 114.41&#10;  C 478.25 132.03 466.21 149.41 452.60 162.35&#10;  Q 432.33 181.61 406.71 193.30&#10;  Q 405.78 183.54 403.57 174.21&#10;  C 401.03 163.49 397.52 153.89 386.38 150.12&#10;  Q 403.84 146.04 419.93 138.65&#10;  C 434.12 132.14 446.93 122.71 456.69 110.17&#10;  Q 458.28 108.14 459.79 105.42&#10;  Q 462.08 101.30 462.38 100.37&#10;  Q 463.54 96.78 464.53 93.89&#10;  Q 465.35 91.49 466.03 84.67&#10;  C 467.40 70.83 461.89 57.05 452.66 46.84&#10;  Q 443.81 37.04 433.17 31.12&#10;  Q 421.23 24.46 412.95 21.07&#10;  Q 406.39 18.38 395.73 15.22&#10;  Q 383.43 11.22 370.69 9.51&#10;  Q 360.81 7.86 357.44 7.59&#10;  Q 351.74 7.14 346.06 6.54&#10;  C 339.23 5.81 333.20 5.62 326.72 5.53&#10;  Q 325.77 5.28 324.74 5.37&#10;  A 0.58 0.58 0.0 0 1 324.11 4.71&#10;  L 324.16 4.40&#10;  A 0.72 0.72 0.0 0 1 324.94 3.79&#10;  Q 330.78 4.27 337.36 3.75&#10;  Q 343.69 3.25 349.66 3.56&#10;  Q 358.76 4.04 372.68 5.40&#10;  Q 401.10 8.17 426.20 17.53&#10;  Z"/>
<path fill="#416675" fill-opacity="0.988" d="&#10;  M 306.95 5.89&#10;  Q 304.68 6.78 302.02 6.42&#10;  Q 300.99 6.17 299.95 6.33&#10;  L 299.25 6.26&#10;  L 296.90 6.12&#10;  Q 297.09 5.62 297.19 5.56&#10;  L 306.95 5.89&#10;  Z"/>
<path fill="#798687" fill-opacity="0.302" d="&#10;  M 317.92 5.90&#10;  L 328.29 6.52&#10;  Q 330.46 7.84 331.63 9.27&#10;  A 3.42 3.38 70.8 0 0 334.20 10.53&#10;  Q 343.20 10.72 352.40 7.98&#10;  L 356.83 8.49&#10;  Q 352.41 10.00 348.07 11.29&#10;  C 346.24 11.83 345.80 12.83 345.72 14.81&#10;  C 345.51 20.72 336.65 21.55 332.11 21.57&#10;  A 1.44 1.43 -12.7 0 1 330.79 20.74&#10;  C 328.39 15.59 329.76 12.63 322.88 10.99&#10;  Q 308.25 7.51 297.97 7.27&#10;  L 299.25 6.26&#10;  L 299.95 6.33&#10;  Q 300.90 6.86 302.02 6.42&#10;  Q 304.68 6.78 306.95 5.89&#10;  Q 308.84 6.58 311.84 5.46&#10;  L 317.92 5.90&#10;  Z"/>
<path fill="#5198a2" fill-opacity="0.988" d="&#10;  M 326.72 5.53&#10;  C 333.20 5.62 339.23 5.81 346.06 6.54&#10;  Q 351.74 7.14 357.44 7.59&#10;  Q 360.81 7.86 370.69 9.51&#10;  Q 368.68 9.14 367.24 9.53&#10;  L 356.83 8.49&#10;  L 352.40 7.98&#10;  Q 340.52 5.91 328.29 6.52&#10;  L 317.92 5.90&#10;  Q 322.25 5.01 326.72 5.53&#10;  Z"/>
<path fill="#303851" fill-opacity="0.984" d="&#10;  M 296.90 6.12&#10;  L 299.25 6.26&#10;  L 297.97 7.27&#10;  Q 293.71 7.30 289.51 7.77&#10;  Q 288.73 7.86 286.70 7.28&#10;  A 0.17 0.17 0.0 0 1 286.69 6.96&#10;  Q 289.53 5.98 292.22 6.48&#10;  Q 294.73 6.94 296.90 6.12&#10;  Z"/>
<path fill="#b1bdc1" fill-opacity="0.561" d="&#10;  M 302.02 6.42&#10;  Q 300.90 6.86 299.95 6.33&#10;  Q 300.99 6.17 302.02 6.42&#10;  Z"/>
<path fill="#b1bdc1" fill-opacity="0.561" d="&#10;  M 352.40 7.98&#10;  Q 343.20 10.72 334.20 10.53&#10;  A 3.42 3.38 70.8 0 1 331.63 9.27&#10;  Q 330.46 7.84 328.29 6.52&#10;  Q 340.52 5.91 352.40 7.98&#10;  Z"/>
<ellipse fill="#798687" fill-opacity="0.302" cx="0.00" cy="0.00" transform="translate(306.55,8.83) rotate(15.9)" rx="0.70" ry="0.11"/>
<path fill="#55a5ad" fill-opacity="0.980" d="&#10;  M 370.69 9.51&#10;  Q 383.43 11.22 395.73 15.22&#10;  L 389.23 14.25&#10;  Q 384.89 12.41 380.15 12.13&#10;  A 2.92 2.77 -30.1 0 1 379.18 11.90&#10;  Q 375.91 10.57 372.45 10.30&#10;  L 367.24 9.53&#10;  Q 368.68 9.14 370.69 9.51&#10;  Z"/>
<path fill="#798687" fill-opacity="0.302" d="&#10;  M 359.13 10.97&#10;  C 361.82 10.14 363.95 9.67 366.97 10.02&#10;  A 0.33 0.33 0.0 0 1 366.95 10.67&#10;  L 359.16 11.11&#10;  A 0.07 0.07 0.0 0 1 359.13 10.97&#10;  Z"/>
<path fill="#798687" fill-opacity="0.302" d="&#10;  M 389.23 14.25&#10;  C 384.46 15.88 379.41 17.82 374.46 15.73&#10;  C 372.31 14.82 371.97 13.73 373.47 11.81&#10;  A 0.46 0.46 0.0 0 0 373.24 11.09&#10;  Q 372.59 10.90 372.45 10.30&#10;  Q 375.91 10.57 379.18 11.90&#10;  A 2.92 2.77 -30.1 0 0 380.15 12.13&#10;  Q 384.89 12.41 389.23 14.25&#10;  Z"/>
<path fill="#4a808c" fill-opacity="0.976" d="&#10;  M 226.44 12.06&#10;  Q 229.74 12.73 233.09 12.09&#10;  Q 239.30 12.02 246.71 13.48&#10;  Q 246.21 20.22 247.79 25.50&#10;  Q 223.59 22.90 199.37 29.86&#10;  Q 195.57 30.95 192.94 32.67&#10;  Q 182.07 36.02 172.43 42.20&#10;  C 152.83 54.75 191.74 61.06 197.05 62.10&#10;  Q 203.28 63.31 211.55 63.67&#10;  Q 215.48 63.84 232.25 64.85&#10;  Q 237.54 65.17 258.48 63.78&#10;  Q 259.36 75.92 253.65 86.79&#10;  Q 246.92 99.60 243.97 113.62&#10;  L 187.21 113.55&#10;  A 0.72 0.71 -6.0 0 1 186.51 112.99&#10;  C 185.72 109.27 184.91 105.24 183.31 101.89&#10;  Q 175.63 85.82 157.13 83.70&#10;  C 150.36 78.11 153.39 70.84 155.38 62.20&#10;  Q 156.83 55.84 158.09 40.79&#10;  C 158.91 30.94 165.82 26.65 174.01 21.89&#10;  Q 184.37 18.00 190.77 16.55&#10;  Q 198.75 14.75 199.30 14.54&#10;  A 5.70 5.68 -57.3 0 1 200.89 14.19&#10;  Q 205.69 13.83 211.75 12.48&#10;  Q 215.44 11.66 226.44 12.06&#10;  Z"/>
<path fill="#3d5b6b" fill-opacity="0.992" d="&#10;  M 233.09 12.09&#10;  Q 229.74 12.73 226.44 12.06&#10;  L 233.09 12.09&#10;  Z"/>
<path fill="#416675" fill-opacity="0.988" d="&#10;  M 363.37 58.80&#10;  Q 357.73 66.52 351.45 74.40&#10;  Q 347.53 79.32 348.80 85.53&#10;  Q 345.05 87.56 341.24 90.99&#10;  Q 336.13 95.59 333.50 101.19&#10;  L 330.68 108.88&#10;  Q 330.06 110.10 330.13 111.69&#10;  A 0.50 0.50 0.0 0 0 331.08 111.87&#10;  Q 331.43 111.06 331.34 109.94&#10;  A 0.25 0.25 0.0 0 1 331.80 109.77&#10;  Q 331.92 109.95 331.63 110.30&#10;  Q 331.55 110.39 331.68 111.21&#10;  Q 331.76 111.71 331.53 112.10&#10;  A 0.96 0.03 -18.4 0 1 330.65 112.42&#10;  Q 330.24 112.55 330.21 113.09&#10;  L 324.78 113.34&#10;  L 243.97 113.62&#10;  Q 246.92 99.60 253.65 86.79&#10;  Q 259.36 75.92 258.48 63.78&#10;  Q 275.04 62.72 291.37 59.57&#10;  C 294.13 59.03 296.76 58.14 299.49 57.32&#10;  L 308.27 55.27&#10;  L 314.64 53.29&#10;  A 0.69 0.68 -34.4 0 0 314.87 52.10&#10;  L 312.44 50.16&#10;  L 310.02 48.42&#10;  L 309.36 48.07&#10;  Q 302.04 42.63 293.96 38.81&#10;  Q 283.21 33.73 271.84 30.28&#10;  Q 261.13 27.04 250.02 25.89&#10;  Q 249.40 25.83 247.79 25.50&#10;  Q 246.21 20.22 246.71 13.48&#10;  Q 249.31 13.56 251.70 14.06&#10;  Q 259.55 15.68 269.46 18.54&#10;  C 292.89 25.31 312.78 38.28 332.21 52.71&#10;  A 11.29 11.25 67.5 0 0 337.25 54.81&#10;  L 363.37 58.80&#10;  Z"/>
<path fill="#55a5ad" fill-opacity="0.980" d="&#10;  M 428.25 16.82&#10;  Q 439.43 20.77 449.52 27.03&#10;  L 447.30 27.50&#10;  L 426.20 17.53&#10;  Q 427.42 17.49 428.25 16.82&#10;  Z"/>
<path fill="#5198a2" fill-opacity="0.988" d="&#10;  M 174.01 21.89&#10;  C 165.82 26.65 158.91 30.94 158.09 40.79&#10;  Q 156.83 55.84 155.38 62.20&#10;  C 153.39 70.84 150.36 78.11 157.13 83.70&#10;  Q 149.44 83.60 146.38 84.60&#10;  Q 134.25 88.56 127.21 99.11&#10;  A 1.54 1.54 0.0 0 1 125.14 99.58&#10;  C 117.07 94.76 108.19 88.52 102.55 80.77&#10;  C 99.61 76.74 98.19 72.59 99.96 67.52&#10;  C 103.13 58.44 110.76 53.32 118.76 48.81&#10;  Q 120.35 47.91 149.72 32.24&#10;  Q 159.34 27.11 174.01 21.89&#10;  Z"/>
<path fill="#58b4ba" fill-opacity="0.988" d="&#10;  M 247.79 25.50&#10;  Q 249.40 25.83 250.02 25.89&#10;  Q 261.13 27.04 271.84 30.28&#10;  Q 283.21 33.73 293.96 38.81&#10;  Q 302.04 42.63 309.36 48.07&#10;  L 300.84 43.77&#10;  A 0.70 0.66 1.0 0 1 300.54 43.48&#10;  Q 300.46 43.33 300.40 43.19&#10;  A 0.96 0.96 0.0 0 0 299.63 42.57&#10;  Q 295.24 41.94 291.54 39.61&#10;  L 298.04 42.19&#10;  A 0.16 0.15 -71.2 0 0 298.24 42.08&#10;  A 0.17 0.17 0.0 0 0 298.15 41.87&#10;  L 281.00 34.80&#10;  L 272.24 30.97&#10;  A 1.85 1.85 0.0 0 0 271.30 30.82&#10;  Q 267.26 31.19 264.38 29.74&#10;  A 1.95 1.81 59.7 0 0 263.82 29.57&#10;  L 252.53 27.81&#10;  A 0.33 0.32 -71.1 0 0 252.19 27.98&#10;  Q 252.16 28.04 252.54 28.26&#10;  A 0.10 0.10 0.0 0 1 252.52 28.44&#10;  Q 252.39 28.49 251.65 27.55&#10;  A 1.49 1.45 73.4 0 0 250.68 27.01&#10;  C 246.62 26.54 243.89 26.17 240.06 26.12&#10;  Q 231.75 26.02 224.53 26.21&#10;  Q 219.67 26.34 217.53 26.87&#10;  Q 217.17 26.96 217.00 27.31&#10;  A 0.53 0.51 8.7 0 1 216.61 27.59&#10;  L 212.24 28.12&#10;  Q 205.81 28.20 199.74 30.65&#10;  L 192.94 32.67&#10;  Q 195.57 30.95 199.37 29.86&#10;  Q 223.59 22.90 247.79 25.50&#10;  Z"/>
<path fill="#b1bdc1" fill-opacity="0.561" d="&#10;  M 281.00 34.80&#10;  L 291.54 39.61&#10;  Q 295.24 41.94 299.63 42.57&#10;  A 0.96 0.96 0.0 0 1 300.40 43.19&#10;  Q 300.46 43.33 300.54 43.48&#10;  A 0.70 0.66 1.0 0 0 300.84 43.77&#10;  L 309.36 48.07&#10;  L 310.02 48.42&#10;  Q 305.75 50.09 301.31 50.08&#10;  A 0.01 0.00 52.0 0 0 301.31 50.09&#10;  Q 301.32 50.10 301.33 50.10&#10;  A 0.17 0.06 -7.6 0 0 301.43 50.12&#10;  L 308.08 49.93&#10;  A 0.43 0.42 4.1 0 0 308.49 49.58&#10;  Q 308.54 49.34 308.60 49.28&#10;  A 0.35 0.34 61.7 0 1 309.18 49.46&#10;  Q 309.21 49.60 309.54 50.14&#10;  A 0.69 0.68 74.2 0 1 308.96 51.19&#10;  L 301.85 51.19&#10;  A 0.03 0.03 0.0 0 0 301.84 51.25&#10;  C 303.47 51.78 305.68 52.37 307.36 52.37&#10;  C 306.60 52.38 305.39 52.54 303.77 52.68&#10;  A 1.74 1.71 57.9 0 1 302.76 52.44&#10;  Q 298.88 50.06 294.24 48.92&#10;  A 0.24 0.23 10.8 0 1 294.06 48.66&#10;  L 294.11 48.35&#10;  A 0.02 0.01 -58.3 0 1 294.13 48.34&#10;  L 297.78 48.94&#10;  A 0.06 0.05 -79.8 0 0 297.84 48.89&#10;  Q 297.84 48.87 297.84 48.85&#10;  A 0.17 0.08 10.1 0 0 297.72 48.76&#10;  Q 280.73 43.90 265.36 34.53&#10;  A 2.02 1.90 -20.2 0 0 264.89 34.33&#10;  L 253.37 30.94&#10;  A 17.20 16.84 -23.3 0 1 250.72 29.92&#10;  C 246.22 27.72 242.79 26.41 238.68 26.55&#10;  C 232.84 26.75 226.04 27.08 219.79 29.13&#10;  A 9.73 9.61 -54.2 0 1 216.88 29.62&#10;  Q 214.25 29.65 211.64 29.62&#10;  Q 215.44 29.38 219.22 29.13&#10;  A 0.22 0.21 86.2 0 0 219.42 28.89&#10;  A 0.07 0.07 0.0 0 0 219.35 28.82&#10;  L 210.58 28.59&#10;  A 0.08 0.08 0.0 0 1 210.56 28.43&#10;  L 212.24 28.12&#10;  L 216.61 27.59&#10;  A 0.53 0.51 8.7 0 0 217.00 27.31&#10;  Q 217.17 26.96 217.53 26.87&#10;  Q 219.67 26.34 224.53 26.21&#10;  Q 231.75 26.02 240.06 26.12&#10;  C 243.89 26.17 246.62 26.54 250.68 27.01&#10;  A 1.49 1.45 73.4 0 1 251.65 27.55&#10;  Q 252.39 28.49 252.52 28.44&#10;  A 0.10 0.10 0.0 0 0 252.54 28.26&#10;  Q 252.16 28.04 252.19 27.98&#10;  A 0.33 0.32 -71.1 0 1 252.53 27.81&#10;  L 263.82 29.57&#10;  A 1.95 1.81 59.7 0 1 264.38 29.74&#10;  Q 267.26 31.19 271.30 30.82&#10;  A 1.85 1.85 0.0 0 1 272.24 30.97&#10;  L 281.00 34.80&#10;  Z"/>
<path fill="#798687" fill-opacity="0.302" d="&#10;  M 310.02 48.42&#10;  L 312.44 50.16&#10;  Q 310.51 50.33 308.88 52.97&#10;  A 0.58 0.55 -85.2 0 0 309.56 53.82&#10;  Q 309.85 53.68 310.11 53.84&#10;  A 0.26 0.26 0.0 0 1 310.04 54.32&#10;  Q 308.97 54.57 308.27 55.27&#10;  L 299.49 57.32&#10;  L 302.46 54.82&#10;  A 0.21 0.20 27.6 0 0 302.34 54.46&#10;  C 296.00 53.87 292.81 51.20 287.91 46.89&#10;  A 8.92 8.88 72.5 0 0 284.18 44.94&#10;  Q 273.94 42.41 266.12 38.72&#10;  C 257.55 34.68 254.05 34.09 244.38 31.04&#10;  C 240.95 29.96 235.87 29.52 233.32 29.82&#10;  Q 218.97 31.56 216.50 31.44&#10;  Q 208.09 31.06 199.74 30.65&#10;  Q 205.81 28.20 212.24 28.12&#10;  L 210.56 28.43&#10;  A 0.08 0.08 0.0 0 0 210.58 28.59&#10;  L 219.35 28.82&#10;  A 0.07 0.07 0.0 0 1 219.42 28.89&#10;  A 0.22 0.21 86.2 0 1 219.22 29.13&#10;  Q 215.44 29.38 211.64 29.62&#10;  Q 214.25 29.65 216.88 29.62&#10;  A 9.73 9.61 -54.2 0 0 219.79 29.13&#10;  C 226.04 27.08 232.84 26.75 238.68 26.55&#10;  C 242.79 26.41 246.22 27.72 250.72 29.92&#10;  A 17.20 16.84 -23.3 0 0 253.37 30.94&#10;  L 264.89 34.33&#10;  A 2.02 1.90 -20.2 0 1 265.36 34.53&#10;  Q 280.73 43.90 297.72 48.76&#10;  A 0.17 0.08 10.1 0 1 297.84 48.85&#10;  Q 297.84 48.87 297.84 48.89&#10;  A 0.06 0.05 -79.8 0 1 297.78 48.94&#10;  L 294.13 48.34&#10;  A 0.02 0.01 -58.3 0 0 294.11 48.35&#10;  L 294.06 48.66&#10;  A 0.24 0.23 10.8 0 0 294.24 48.92&#10;  Q 298.88 50.06 302.76 52.44&#10;  A 1.74 1.71 57.9 0 0 303.77 52.68&#10;  C 305.39 52.54 306.60 52.38 307.36 52.37&#10;  C 305.68 52.37 303.47 51.78 301.84 51.25&#10;  A 0.03 0.03 0.0 0 1 301.85 51.19&#10;  L 308.96 51.19&#10;  A 0.69 0.68 74.2 0 0 309.54 50.14&#10;  Q 309.21 49.60 309.18 49.46&#10;  A 0.35 0.34 61.7 0 0 308.60 49.28&#10;  Q 308.54 49.34 308.49 49.58&#10;  A 0.43 0.42 4.1 0 1 308.08 49.93&#10;  L 301.43 50.12&#10;  A 0.17 0.06 -7.6 0 1 301.33 50.10&#10;  Q 301.32 50.10 301.31 50.09&#10;  A 0.01 0.00 52.0 0 1 301.31 50.08&#10;  Q 305.75 50.09 310.02 48.42&#10;  Z"/>
<path fill="#58b4ba" fill-opacity="0.988" d="&#10;  M 91.17 93.54&#10;  Q 88.18 113.66 86.57 133.78&#10;  Q 85.71 144.47 81.88 154.60&#10;  Q 52.69 137.13 26.80 115.19&#10;  C 23.33 112.25 18.58 108.57 15.06 104.43&#10;  Q 13.09 102.11 11.63 97.36&#10;  Q 7.85 85.11 7.29 81.99&#10;  Q 6.18 75.86 5.58 74.62&#10;  A 10.03 9.49 31.3 0 1 5.14 73.01&#10;  L 3.20 62.14&#10;  A 1.61 1.04 51.3 0 1 3.17 61.85&#10;  C 2.99 55.75 1.22 49.11 1.12 42.92&#10;  Q 1.01 36.19 1.12 30.26&#10;  A 0.70 0.70 0.0 0 1 2.29 29.75&#10;  Q 32.50 57.31 67.02 78.98&#10;  Q 75.05 84.03 91.17 93.54&#10;  Z"/>
<path fill="#55a5ad" fill-opacity="0.980" d="&#10;  M 291.54 39.61&#10;  L 281.00 34.80&#10;  L 298.15 41.87&#10;  A 0.17 0.17 0.0 0 1 298.24 42.08&#10;  A 0.16 0.15 -71.2 0 1 298.04 42.19&#10;  L 291.54 39.61&#10;  Z"/>
<path fill="#374d61" fill-opacity="0.980" d="&#10;  M 363.37 58.80&#10;  Q 374.53 60.55 384.72 63.04&#10;  C 395.78 65.76 405.52 68.34 415.19 72.83&#10;  C 427.20 78.40 435.98 87.40 436.53 101.26&#10;  Q 436.60 103.05 434.57 108.59&#10;  C 432.86 113.24 430.12 112.86 425.07 112.93&#10;  Q 415.97 113.06 406.75 113.33&#10;  Q 404.51 113.39 401.85 113.17&#10;  A 1.22 1.21 -6.0 0 1 400.79 112.32&#10;  C 398.73 105.90 397.00 100.88 392.56 95.27&#10;  L 388.21 90.63&#10;  L 386.10 89.03&#10;  Q 383.00 85.97 378.77 84.49&#10;  L 373.04 82.41&#10;  Q 361.31 79.21 350.48 84.70&#10;  L 348.80 85.53&#10;  Q 347.53 79.32 351.45 74.40&#10;  Q 357.73 66.52 363.37 58.80&#10;  Z"/>
<path fill="#55a5ad" fill-opacity="0.980" d="&#10;  M 373.04 82.41&#10;  L 359.72 82.56&#10;  A 0.17 0.16 -41.9 0 0 359.70 82.89&#10;  L 364.04 83.36&#10;  A 0.04 0.04 0.0 0 1 364.08 83.39&#10;  L 364.10 83.64&#10;  A 0.33 0.32 84.0 0 1 363.81 84.01&#10;  C 362.90 84.10 362.01 84.13 361.12 84.13&#10;  Q 361.21 84.13 362.11 84.12&#10;  A 0.17 0.17 0.0 0 0 362.15 83.79&#10;  Q 359.38 83.15 355.97 83.36&#10;  A 0.18 0.18 0.0 0 0 355.80 83.52&#10;  L 355.75 83.83&#10;  A 0.03 0.03 0.0 0 0 355.78 83.87&#10;  L 357.83 83.87&#10;  A 1.55 1.55 0.0 0 1 358.69 84.13&#10;  Q 360.63 85.46 363.11 86.13&#10;  Q 359.98 85.64 357.19 84.02&#10;  A 1.37 1.34 -32.6 0 0 356.32 83.84&#10;  Q 353.04 84.22 350.38 86.46&#10;  A 0.12 0.12 0.0 0 1 350.19 86.41&#10;  Q 350.10 86.20 350.32 86.26&#10;  A 0.16 0.15 7.0 0 0 350.52 86.11&#10;  L 350.48 84.70&#10;  Q 361.31 79.21 373.04 82.41&#10;  Z"/>
<path fill="#b1bdc1" fill-opacity="0.561" d="&#10;  M 373.04 82.41&#10;  L 378.77 84.49&#10;  L 386.10 89.03&#10;  L 388.21 90.63&#10;  Q 381.99 91.46 375.77 92.13&#10;  Q 374.80 92.23 374.25 91.88&#10;  A 0.59 0.58 -7.5 0 0 373.54 92.80&#10;  L 375.98 95.02&#10;  Q 374.97 95.22 373.99 94.71&#10;  A 0.06 0.06 0.0 0 1 374.01 94.59&#10;  Q 374.24 94.56 374.26 94.46&#10;  A 0.15 0.14 -79.3 0 0 374.14 94.28&#10;  Q 371.73 94.02 369.66 93.30&#10;  A 3.76 3.56 -31.3 0 0 368.77 93.11&#10;  Q 359.88 92.39 353.47 95.49&#10;  Q 351.14 96.61 345.85 101.03&#10;  A 0.06 0.06 0.0 0 1 345.76 101.02&#10;  Q 345.62 100.86 345.53 100.85&#10;  A 0.15 0.14 13.2 0 0 345.40 100.93&#10;  L 340.86 111.52&#10;  A 0.23 0.23 0.0 0 1 340.42 111.48&#10;  Q 339.81 109.07 341.37 108.17&#10;  A 0.20 0.20 0.0 0 0 341.28 107.80&#10;  Q 340.44 107.78 340.60 106.33&#10;  A 1.27 1.23 65.0 0 1 340.79 105.78&#10;  Q 342.07 103.78 342.73 101.68&#10;  Q 343.73 98.50 344.59 97.69&#10;  Q 347.23 95.23 350.51 94.18&#10;  Q 350.64 94.14 350.52 94.08&#10;  A 0.26 0.25 -36.9 0 0 350.35 94.06&#10;  Q 344.19 95.26 343.51 95.14&#10;  A 0.16 0.16 0.0 0 1 343.48 94.83&#10;  L 348.67 92.83&#10;  A 0.26 0.25 80.3 0 0 348.83 92.59&#10;  L 348.83 92.58&#10;  A 0.24 0.24 0.0 0 0 348.58 92.37&#10;  L 344.27 92.58&#10;  A 0.86 0.86 0.0 0 0 343.54 93.05&#10;  L 341.65 96.65&#10;  A 0.88 0.79 60.6 0 0 341.55 97.09&#10;  Q 341.61 101.31 339.00 104.42&#10;  A 0.36 0.36 0.0 0 0 339.06 104.94&#10;  L 339.16 105.01&#10;  A 0.35 0.34 -55.2 0 0 339.65 104.92&#10;  Q 342.17 101.02 342.35 96.17&#10;  A 0.12 0.12 0.0 0 1 342.47 96.06&#10;  L 342.74 96.06&#10;  A 0.29 0.28 1.8 0 1 343.03 96.36&#10;  C 342.66 102.96 340.24 108.01 334.71 111.54&#10;  A 0.43 0.43 0.0 0 0 334.54 112.06&#10;  L 334.65 112.37&#10;  A 0.60 0.60 0.0 0 0 335.48 112.68&#10;  Q 337.05 111.90 338.74 112.15&#10;  L 330.21 113.09&#10;  Q 330.24 112.55 330.65 112.42&#10;  A 0.96 0.03 -18.4 0 0 331.53 112.10&#10;  Q 331.76 111.71 331.68 111.21&#10;  Q 331.55 110.39 331.63 110.30&#10;  Q 331.92 109.95 331.80 109.77&#10;  A 0.25 0.25 0.0 0 0 331.34 109.94&#10;  Q 331.43 111.06 331.08 111.87&#10;  A 0.50 0.50 0.0 0 1 330.13 111.69&#10;  Q 330.06 110.10 330.68 108.88&#10;  Q 332.96 106.50 333.49 103.05&#10;  A 0.75 0.74 87.8 0 1 334.07 102.42&#10;  Q 335.00 102.21 335.87 102.19&#10;  C 337.55 102.15 338.97 101.03 338.60 99.31&#10;  A 0.56 0.56 0.0 0 0 337.89 98.90&#10;  Q 336.52 99.32 336.11 98.20&#10;  A 0.19 0.19 0.0 0 0 335.76 98.19&#10;  L 334.49 101.16&#10;  A 0.21 0.21 0.0 0 0 334.59 101.43&#10;  Q 334.92 101.60 335.10 101.05&#10;  Q 335.24 100.62 335.79 100.39&#10;  Q 336.98 99.91 337.33 99.57&#10;  A 0.62 0.62 0.0 0 1 338.30 99.70&#10;  L 338.34 99.77&#10;  A 0.80 0.80 0.0 0 1 338.11 100.82&#10;  Q 335.84 102.42 333.50 101.19&#10;  Q 336.13 95.59 341.24 90.99&#10;  Q 345.05 87.56 348.80 85.53&#10;  L 350.48 84.70&#10;  L 350.52 86.11&#10;  A 0.16 0.15 7.0 0 1 350.32 86.26&#10;  Q 350.10 86.20 350.19 86.41&#10;  A 0.12 0.12 0.0 0 0 350.38 86.46&#10;  Q 353.04 84.22 356.32 83.84&#10;  A 1.37 1.34 -32.6 0 1 357.19 84.02&#10;  Q 359.98 85.64 363.11 86.13&#10;  Q 360.63 85.46 358.69 84.13&#10;  A 1.55 1.55 0.0 0 0 357.83 83.87&#10;  L 355.78 83.87&#10;  A 0.03 0.03 0.0 0 1 355.75 83.83&#10;  L 355.80 83.52&#10;  A 0.18 0.18 0.0 0 1 355.97 83.36&#10;  Q 359.38 83.15 362.15 83.79&#10;  A 0.17 0.17 0.0 0 1 362.11 84.12&#10;  Q 361.21 84.13 361.12 84.13&#10;  C 362.01 84.13 362.90 84.10 363.81 84.01&#10;  A 0.33 0.32 84.0 0 0 364.10 83.64&#10;  L 364.08 83.39&#10;  A 0.04 0.04 0.0 0 0 364.04 83.36&#10;  L 359.70 82.89&#10;  A 0.17 0.16 -41.9 0 1 359.72 82.56&#10;  L 373.04 82.41&#10;  Z"/>
<path fill="#5198a2" fill-opacity="0.988" d="&#10;  M 386.10 89.03&#10;  L 378.77 84.49&#10;  Q 383.00 85.97 386.10 89.03&#10;  Z"/>
<path fill="#798687" fill-opacity="0.302" d="&#10;  M 388.21 90.63&#10;  L 392.56 95.27&#10;  Q 386.76 96.10 381.57 98.79&#10;  Q 379.20 96.32 375.98 95.02&#10;  L 373.54 92.80&#10;  A 0.59 0.58 -7.5 0 1 374.25 91.88&#10;  Q 374.80 92.23 375.77 92.13&#10;  Q 381.99 91.46 388.21 90.63&#10;  Z"/>
<path fill="#374d61" fill-opacity="0.980" d="&#10;  M 375.98 95.02&#10;  Q 379.20 96.32 381.57 98.79&#10;  Q 389.52 106.44 389.27 117.73&#10;  Q 389.15 123.05 386.87 127.10&#10;  Q 383.46 133.15 377.41 136.69&#10;  C 374.94 138.13 372.74 138.30 369.86 139.26&#10;  Q 368.84 139.60 366.70 139.71&#10;  C 351.78 140.48 340.49 129.78 340.80 114.74&#10;  L 340.63 113.18&#10;  A 0.05 0.05 0.0 0 1 340.73 113.16&#10;  L 340.81 113.51&#10;  A 0.16 0.16 0.0 0 0 341.12 113.47&#10;  L 341.12 112.47&#10;  A 0.06 0.06 0.0 0 0 341.00 112.45&#10;  L 340.93 112.70&#10;  A 0.05 0.04 34.8 0 1 340.85 112.71&#10;  L 340.30 111.99&#10;  Q 337.87 110.60 335.21 111.84&#10;  A 0.16 0.16 0.0 0 0 335.29 112.14&#10;  Q 335.60 112.11 335.88 111.88&#10;  Q 338.10 111.77 340.30 111.99&#10;  Q 339.52 112.48 338.74 112.15&#10;  Q 337.05 111.90 335.48 112.68&#10;  A 0.60 0.60 0.0 0 1 334.65 112.37&#10;  L 334.54 112.06&#10;  A 0.43 0.43 0.0 0 1 334.71 111.54&#10;  C 340.24 108.01 342.66 102.96 343.03 96.36&#10;  A 0.29 0.28 1.8 0 0 342.74 96.06&#10;  L 342.47 96.06&#10;  A 0.12 0.12 0.0 0 0 342.35 96.17&#10;  Q 342.17 101.02 339.65 104.92&#10;  A 0.35 0.34 -55.2 0 1 339.16 105.01&#10;  L 339.06 104.94&#10;  A 0.36 0.36 0.0 0 1 339.00 104.42&#10;  Q 341.61 101.31 341.55 97.09&#10;  A 0.88 0.79 60.6 0 1 341.65 96.65&#10;  L 343.54 93.05&#10;  A 0.86 0.86 0.0 0 1 344.27 92.58&#10;  L 348.58 92.37&#10;  A 0.24 0.24 0.0 0 1 348.83 92.58&#10;  L 348.83 92.59&#10;  A 0.26 0.25 80.3 0 1 348.67 92.83&#10;  L 343.48 94.83&#10;  A 0.16 0.16 0.0 0 0 343.51 95.14&#10;  Q 344.19 95.26 350.35 94.06&#10;  A 0.26 0.25 -36.9 0 1 350.52 94.08&#10;  Q 350.64 94.14 350.51 94.18&#10;  Q 347.23 95.23 344.59 97.69&#10;  Q 343.73 98.50 342.73 101.68&#10;  Q 342.07 103.78 340.79 105.78&#10;  A 1.27 1.23 65.0 0 0 340.60 106.33&#10;  Q 340.44 107.78 341.28 107.80&#10;  A 0.20 0.20 0.0 0 1 341.37 108.17&#10;  Q 339.81 109.07 340.42 111.48&#10;  A 0.23 0.23 0.0 0 0 340.86 111.52&#10;  L 345.40 100.93&#10;  A 0.15 0.14 13.2 0 1 345.53 100.85&#10;  Q 345.62 100.86 345.76 101.02&#10;  A 0.06 0.06 0.0 0 0 345.85 101.03&#10;  Q 351.14 96.61 353.47 95.49&#10;  Q 359.88 92.39 368.77 93.11&#10;  A 3.76 3.56 -31.3 0 1 369.66 93.30&#10;  Q 371.73 94.02 374.14 94.28&#10;  A 0.15 0.14 -79.3 0 1 374.26 94.46&#10;  Q 374.24 94.56 374.01 94.59&#10;  A 0.06 0.06 0.0 0 0 373.99 94.71&#10;  Q 374.97 95.22 375.98 95.02&#10;  Z"/>
<path fill="#5198a2" fill-opacity="0.988" d="&#10;  M 160.21 125.46&#10;  Q 159.70 140.61 162.04 158.00&#10;  Q 164.86 178.94 168.28 194.43&#10;  Q 122.86 179.14 81.88 154.60&#10;  Q 85.71 144.47 86.57 133.78&#10;  Q 88.18 113.66 91.17 93.54&#10;  Q 124.56 112.20 160.21 125.46&#10;  Z"/>
<path fill="#58b4ba" fill-opacity="0.988" d="&#10;  M 330.68 108.88&#10;  L 333.50 101.19&#10;  Q 335.84 102.42 338.11 100.82&#10;  A 0.80 0.80 0.0 0 0 338.34 99.77&#10;  L 338.30 99.70&#10;  A 0.62 0.62 0.0 0 0 337.33 99.57&#10;  Q 336.98 99.91 335.79 100.39&#10;  Q 335.24 100.62 335.10 101.05&#10;  Q 334.92 101.60 334.59 101.43&#10;  A 0.21 0.21 0.0 0 1 334.49 101.16&#10;  L 335.76 98.19&#10;  A 0.19 0.19 0.0 0 1 336.11 98.20&#10;  Q 336.52 99.32 337.89 98.90&#10;  A 0.56 0.56 0.0 0 1 338.60 99.31&#10;  C 338.97 101.03 337.55 102.15 335.87 102.19&#10;  Q 335.00 102.21 334.07 102.42&#10;  A 0.75 0.74 87.8 0 0 333.49 103.05&#10;  Q 332.96 106.50 330.68 108.88&#10;  Z"/>
<path fill="#b1bdc1" fill-opacity="0.561" d="&#10;  M 340.30 111.99&#10;  Q 338.10 111.77 335.88 111.88&#10;  Q 335.60 112.11 335.29 112.14&#10;  A 0.16 0.16 0.0 0 1 335.21 111.84&#10;  Q 337.87 110.60 340.30 111.99&#10;  Z"/>
<path fill="#798687" fill-opacity="0.302" d="&#10;  M 340.30 111.99&#10;  L 340.85 112.71&#10;  A 0.05 0.04 34.8 0 0 340.93 112.70&#10;  L 341.00 112.45&#10;  A 0.06 0.06 0.0 0 1 341.12 112.47&#10;  L 341.12 113.47&#10;  A 0.16 0.16 0.0 0 1 340.81 113.51&#10;  L 340.73 113.16&#10;  A 0.05 0.05 0.0 0 0 340.63 113.18&#10;  L 340.80 114.74&#10;  Q 337.13 115.23 333.52 114.44&#10;  A 0.18 0.17 -80.3 0 1 333.38 114.23&#10;  A 0.18 0.17 8.6 0 1 333.58 114.09&#10;  Q 336.55 114.50 339.50 114.37&#10;  Q 339.67 114.36 339.65 114.19&#10;  A 0.06 0.06 0.0 0 0 339.59 114.14&#10;  L 324.78 113.34&#10;  L 330.21 113.09&#10;  L 338.74 112.15&#10;  Q 339.52 112.48 340.30 111.99&#10;  Z"/>
<path fill="#487885" fill-opacity="0.992" d="&#10;  M 285.21 154.10&#10;  Q 285.80 154.27 286.54 154.24&#10;  Q 303.44 155.93 320.44 155.64&#10;  C 320.86 164.97 318.96 171.43 315.71 180.78&#10;  C 311.78 192.08 313.98 203.47 317.83 215.88&#10;  Q 298.90 216.20 280.04 215.89&#10;  C 271.57 215.75 263.72 214.17 255.48 213.87&#10;  Q 249.63 213.66 243.61 212.30&#10;  A 9.50 8.85 50.0 0 0 241.76 212.07&#10;  Q 236.54 211.93 231.22 210.40&#10;  A 6.43 6.28 -33.1 0 0 230.16 210.19&#10;  L 225.06 209.67&#10;  A 1.97 1.89 -32.2 0 1 224.67 209.59&#10;  Q 220.63 208.23 218.06 207.97&#10;  C 215.16 207.67 212.28 206.17 209.44 205.99&#10;  Q 207.19 205.84 204.80 204.92&#10;  Q 204.14 204.66 200.12 203.83&#10;  Q 191.23 201.99 168.28 194.43&#10;  Q 164.86 178.94 162.04 158.00&#10;  Q 159.70 140.61 160.21 125.46&#10;  Q 177.86 132.47 187.62 135.13&#10;  C 203.43 139.44 212.59 142.12 224.16 144.67&#10;  Q 250.68 150.51 278.27 153.63&#10;  Q 281.72 154.02 285.21 154.10&#10;  Z"/>
<path fill="#55a5ad" fill-opacity="0.980" d="&#10;  M 118.48 190.50&#10;  Q 118.30 197.59 117.62 210.20&#10;  Q 116.86 224.30 121.69 237.98&#10;  Q 124.29 245.35 127.01 252.71&#10;  Q 93.40 231.10 67.25 201.01&#10;  Q 62.23 195.23 51.61 180.15&#10;  Q 37.81 160.56 28.31 138.75&#10;  A 0.39 0.39 0.0 0 1 28.89 138.28&#10;  Q 54.54 156.59 81.26 171.76&#10;  Q 93.18 178.53 118.48 190.50&#10;  Z"/>
<path fill="#3d5b6b" fill-opacity="0.992" d="&#10;  M 406.71 193.30&#10;  Q 385.03 203.46 361.64 209.11&#10;  Q 358.53 209.86 356.33 210.21&#10;  Q 353.65 210.63 351.41 211.48&#10;  A 5.96 5.79 33.8 0 1 349.22 211.88&#10;  Q 344.80 211.86 340.08 213.52&#10;  A 3.47 3.28 -56.1 0 1 339.20 213.72&#10;  L 317.83 215.88&#10;  C 313.98 203.47 311.78 192.08 315.71 180.78&#10;  C 318.96 171.43 320.86 164.97 320.44 155.64&#10;  L 354.20 154.98&#10;  Q 354.89 155.02 355.46 154.84&#10;  C 360.22 154.06 365.97 154.11 369.82 153.29&#10;  Q 374.43 152.31 379.11 151.80&#10;  C 381.23 151.57 383.87 150.41 386.38 150.12&#10;  C 397.52 153.89 401.03 163.49 403.57 174.21&#10;  Q 405.78 183.54 406.71 193.30&#10;  Z"/>
<path fill="#303851" fill-opacity="0.984" d="&#10;  M 286.54 154.24&#10;  Q 285.80 154.27 285.21 154.10&#10;  Q 286.01 153.99 286.54 154.24&#10;  Z"/>
<path fill="#303851" fill-opacity="0.984" d="&#10;  M 355.46 154.84&#10;  Q 354.89 155.02 354.20 154.98&#10;  Q 354.64 154.75 355.46 154.84&#10;  Z"/>
<path fill="#374d61" fill-opacity="0.980" d="&#10;  M 446.40 239.61&#10;  Q 410.19 269.06 365.81 283.53&#10;  C 361.87 278.25 362.65 273.18 364.49 267.32&#10;  C 367.38 258.11 369.76 249.99 372.14 239.49&#10;  Q 374.97 227.05 378.58 214.71&#10;  C 402.57 206.47 424.21 195.64 444.04 179.69&#10;  Q 445.17 195.26 444.86 214.30&#10;  Q 444.67 225.74 446.40 239.61&#10;  Z"/>
<path fill="#5198a2" fill-opacity="0.988" d="&#10;  M 153.52 204.44&#10;  Q 155.43 234.54 156.25 264.61&#10;  Q 156.31 266.99 156.28 269.33&#10;  Q 141.05 261.99 127.01 252.71&#10;  Q 124.29 245.35 121.69 237.98&#10;  Q 116.86 224.30 117.62 210.20&#10;  Q 118.30 197.59 118.48 190.50&#10;  L 153.52 204.44&#10;  Z"/>
<path fill="#4a808c" fill-opacity="0.976" d="&#10;  M 248.77 226.27&#10;  C 254.34 237.92 252.55 252.56 247.98 264.34&#10;  Q 245.78 270.00 242.18 273.76&#10;  C 238.35 277.76 227.62 288.05 238.02 291.60&#10;  Q 246.09 294.35 254.55 296.06&#10;  Q 249.87 295.88 245.31 295.23&#10;  Q 244.12 295.06 235.97 293.99&#10;  C 222.77 292.26 209.64 289.05 196.21 285.03&#10;  Q 175.59 278.85 156.28 269.33&#10;  Q 156.31 266.99 156.25 264.61&#10;  Q 155.43 234.54 153.52 204.44&#10;  Q 178.97 212.89 204.97 218.90&#10;  Q 216.45 221.56 228.05 223.56&#10;  Q 238.41 225.35 248.77 226.27&#10;  Z"/>
<path fill="#416675" fill-opacity="0.988" d="&#10;  M 378.58 214.71&#10;  Q 374.97 227.05 372.14 239.49&#10;  C 369.76 249.99 367.38 258.11 364.49 267.32&#10;  C 362.65 273.18 361.87 278.25 365.81 283.53&#10;  Q 362.00 284.89 358.21 285.86&#10;  Q 355.55 286.54 353.73 287.23&#10;  C 351.64 288.03 349.78 287.75 347.65 288.63&#10;  Q 344.86 289.79 341.35 290.04&#10;  A 3.35 3.28 -55.9 0 0 340.51 290.21&#10;  L 336.31 291.59&#10;  A 2.71 2.29 -49.7 0 1 335.65 291.70&#10;  Q 331.00 291.84 326.42 293.43&#10;  A 4.55 4.32 -54.3 0 1 325.05 293.69&#10;  Q 320.75 293.82 314.82 295.03&#10;  C 309.95 296.02 306.26 295.67 301.61 296.15&#10;  Q 278.05 298.57 254.55 296.06&#10;  Q 246.09 294.35 238.02 291.60&#10;  C 227.62 288.05 238.35 277.76 242.18 273.76&#10;  Q 245.78 270.00 247.98 264.34&#10;  C 252.55 252.56 254.34 237.92 248.77 226.27&#10;  C 257.54 227.14 266.56 228.07 275.10 228.18&#10;  Q 292.71 228.42 309.51 227.97&#10;  C 316.45 227.79 322.28 226.31 328.92 225.99&#10;  Q 331.72 225.85 336.20 224.83&#10;  C 338.94 224.21 340.60 224.17 342.90 223.92&#10;  C 346.03 223.57 349.19 222.24 351.72 222.05&#10;  Q 353.45 221.92 356.09 221.04&#10;  Q 356.84 220.79 360.52 220.10&#10;  Q 365.58 219.14 378.58 214.71&#10;  Z"/>
</svg>